<svg width="100" height="101" viewBox="0 0 100 101" fill="none" xmlns="http://www.w3.org/2000/svg">
<g clip-path="url(#clip0_2_535)">
<path d="M99.2052 43C98.2573 36.7635 96.1281 30.8062 92.8135 25.126C92.0302 23.7781 91.1771 22.4802 90.2667 21.225L90.2906 58.2865C90.1625 64.8073 82.4489 69.8719 82.1177 70.0813L73.2823 75.7969L74.0875 77.0396L67.1833 81.5042L69.5448 85.1479L68.4396 85.8594L66.0781 82.2188L64.424 83.2906L65.5458 85.0271L57.2615 90.3865L51.9771 82.2198L60.2594 76.8615L61.3833 78.6L71.0469 72.349L71.8531 73.5906L80.6885 67.8771C80.7542 67.8302 87.5594 63.3552 87.6594 58.2625L87.6323 17.9312C85.2698 15.2229 82.5896 12.749 79.5667 10.5271C74.0479 6.47499 68.0875 3.71249 61.6708 2.24583C55.2604 0.77812 48.9125 0.507286 42.6396 1.43854C36.3635 2.3677 30.3844 4.48958 24.6979 7.80937C19.0094 11.1292 14.1385 15.549 10.0729 21.0719C6.0125 26.5885 3.24062 32.5562 1.76771 38.9687C0.290622 45.3812 0.0437469 51.7208 1.02916 57.9823C2.01041 64.2458 4.16041 70.2135 7.475 75.8958C10.7865 81.5771 15.2021 86.4406 20.7187 90.4958C26.2365 94.549 32.2031 97.3094 38.6167 98.7792C45.0344 100.245 51.3542 100.501 57.5948 99.5469C63.8365 98.5906 69.7948 96.4521 75.4823 93.1333C81.1698 89.8135 86.0417 85.3917 90.1021 79.8729C94.1667 74.3542 96.9375 68.3865 98.4135 61.9719C99.8875 55.5573 100.154 49.2354 99.2052 43ZM7.53333 57.4917C6.09583 51.3594 6.58125 44.6458 8.25625 38.6104C9.44271 33.1458 12.8 27.9135 16.2896 23.6646C19.9396 19.2135 24.7146 16.1375 29.8229 13.6375C25.1917 17.1156 20.6937 20.8885 17.4635 25.7687C14.6375 30.0396 12.0021 34.6979 10.8615 39.75C10.2885 42.2875 9.80312 44.7719 9.46041 47.3521C9.07396 50.299 9.34375 53.299 9.49375 56.249C9.98958 59.4479 10.5 62.6281 11.5469 65.7021C12.3302 68.0031 13.2417 70.2135 14.1906 72.4479C10.9729 67.8063 8.81875 62.9969 7.53333 57.4917ZM16.4083 54.5C16.6208 59.5062 18.3823 64.1792 20.174 68.7885C14.3979 60.8563 12.5458 51.3937 14.6927 41.8542C16.926 31.9219 24.0104 23.9031 33.2021 19.7812C29.4833 22.7729 25.7687 25.824 23.1354 29.8719C20.7146 33.5927 18.6219 37.5115 17.5677 41.851C16.5458 46.0646 16.2208 50.1667 16.4083 54.5ZM21.5542 43.275C23.301 35.4042 29.2115 28.9385 36.5792 25.9219C30.9677 30.7229 26.1021 36.2792 24.3396 43.6542C23.5312 47.0458 23.2677 50.324 23.3792 53.8135C23.5083 57.7427 24.8906 61.4583 26.1844 65.1135C21.2594 58.7417 19.825 51.0625 21.5542 43.275ZM50.0833 71.526C38.4583 71.526 29.0323 62.1094 29.0323 50.4927C29.0323 38.8771 38.4583 29.4594 50.0833 29.4594C61.7094 29.4594 71.1333 38.8771 71.1333 50.4927C71.1333 62.1104 61.7094 71.526 50.0833 71.526ZM56.6344 50.4927C56.6344 54.1083 53.701 57.0375 50.0833 57.0375C46.4667 57.0375 43.5344 54.1083 43.5344 50.4927C43.5344 46.8792 46.4677 43.95 50.0833 43.95C53.701 43.95 56.6344 46.8792 56.6344 50.4927Z" fill="#C9184A"/>
</g>
<defs>
<clipPath id="clip0_2_535">
<rect width="100" height="100" fill="white" transform="translate(0 0.5)"/>
</clipPath>
</defs>
</svg>
